<?xml version="1.0" encoding="UTF-8" standalone="no"?>
<!-- Created with Inkscape (http://www.inkscape.org/) -->
<svg
   xmlns:dc="http://purl.org/dc/elements/1.1/"
   xmlns:cc="http://web.resource.org/cc/"
   xmlns:rdf="http://www.w3.org/1999/02/22-rdf-syntax-ns#"
   xmlns:svg="http://www.w3.org/2000/svg"
   xmlns="http://www.w3.org/2000/svg"
   xmlns:sodipodi="http://sodipodi.sourceforge.net/DTD/sodipodi-0.dtd"
   xmlns:inkscape="http://www.inkscape.org/namespaces/inkscape"
   id="svg2214"
   sodipodi:version="0.32"
   inkscape:version="0.45.1"
   width="600"
   height="663"
   version="1.0"
   sodipodi:docbase="/home/roman/Escritorio"
   sodipodi:docname="escudo enp 6.png.svg"
   inkscape:output_extension="org.inkscape.output.svg.inkscape">
  <metadata
     id="metadata2219">
    <rdf:RDF>
      <cc:Work
         rdf:about="">
        <dc:format>image/svg+xml</dc:format>
        <dc:type
           rdf:resource="http://purl.org/dc/dcmitype/StillImage" />
      </cc:Work>
    </rdf:RDF>
  </metadata>
  <defs
     id="defs2217" />
  <sodipodi:namedview
     inkscape:window-height="803"
     inkscape:window-width="1440"
     inkscape:pageshadow="2"
     inkscape:pageopacity="0.0"
     guidetolerance="10.0"
     gridtolerance="10.0"
     objecttolerance="10.0"
     borderopacity="1.0"
     bordercolor="#666666"
     pagecolor="#ffffff"
     id="base"
     inkscape:zoom="0.61387632"
     inkscape:cx="-204.25382"
     inkscape:cy="264.26331"
     inkscape:window-x="0"
     inkscape:window-y="29"
     inkscape:current-layer="svg2214" />
  <path
     style="fill:#000000"
     d="M 452.43216,640.81108 C 441.0201,637.67445 427.06525,632.27011 418.17868,627.54563 C 413.53492,625.0768 410.00016,621.86299 405.0864,615.64203 C 395.95714,604.08417 387.20203,589.31585 384.37607,580.70738 C 380.97178,570.33719 379.1929,552.23404 379.88576,535.01061 C 380.8222,511.73189 383.89348,503.14714 398.11749,484.04974 C 409.46296,468.81712 417.858,459.55442 430.60133,448.20862 C 440.19823,439.66417 443.68673,437.43696 459.77459,429.58304 C 480.44119,419.49383 490.05364,415.9659 499.109,415.14664 C 504.90862,414.62194 505.60463,414.82736 508.54403,417.93139 C 510.28946,419.77457 512.00262,423.03943 512.35106,425.18664 C 513.36017,431.40506 510.50634,433.82152 498.53977,436.88122 C 479.01595,441.8732 460.22129,453.31371 447.70331,467.8259 C 438.6688,478.29967 432.72051,487.59559 423.83604,505.12539 C 417.30623,518.00925 416.54913,517.61833 433.87021,510.30659 C 450.94477,503.09891 455.41223,502.22144 478.05348,501.62846 L 498.55173,501.09161 L 511.0688,507.49612 C 517.95319,511.0186 526.01101,515.68198 528.97505,517.85919 C 535.61085,522.73344 543.35289,532.43918 548.67537,542.5563 C 552.39362,549.62405 552.74377,551.16275 553.33862,563.04857 C 553.69235,570.11648 553.45902,579.94264 552.82012,584.8845 C 551.8005,592.77123 551.00883,594.8205 546.34445,601.64707 C 531.57223,623.26696 511.04995,639.24839 494.01568,642.39735 C 482.37555,644.54914 463.39857,643.82524 452.43216,640.81108 z M 485.74247,616.38477 C 498.14441,613.21288 502.64761,610.55629 507.44727,603.58033 C 514.09335,593.92075 515.2095,582.91244 511.46592,563.94549 C 509.94243,556.22669 507.68382,551.69124 500.80905,542.54578 C 494.77302,534.51607 488.69303,529.89237 480.21771,526.88649 C 474.68675,524.92487 473.87111,524.91891 462.57159,526.7574 C 442.27238,530.06022 427.39818,539.5335 423.8342,551.42902 C 421.97677,557.62857 423.8571,573.47808 428.04078,586.88664 C 430.68399,595.35803 431.71477,597.07245 437.52029,602.65311 C 444.74906,609.6019 453.55109,614.39777 463.49901,616.80787 C 472.53562,618.99719 475.76843,618.9357 485.74247,616.38477 z M 165.18203,570.86608 C 159.82554,569.76364 155.22481,566.46869 153.16193,562.25753 C 150.96571,557.77415 153.14487,545.39964 157.74049,536.25784 C 166.45826,518.91605 185.10873,488.33957 197.79422,470.59181 C 216.72962,444.10004 240.34177,418.13924 256.81194,405.70371 C 277.20441,390.30671 342.53241,351.38913 379.2181,332.78321 C 419.16328,312.52415 435.05744,307.00157 477.47827,298.64165 C 490.3144,296.11202 503.24029,293.25583 506.20247,292.29456 C 509.16465,291.33328 516.47604,287.27886 522.45,283.28472 C 528.42397,279.2906 536.37565,274.38963 540.12041,272.3937 C 543.86518,270.39776 548.97723,266.54273 551.48052,263.82697 C 555.65442,259.29883 556.03197,258.3632 556.03197,252.5479 C 556.03197,242.00953 551.86626,239.67386 528.70895,237.22816 C 522.13434,236.5338 512.14436,235.19791 506.50899,234.2595 C 491.96764,231.83807 414.59732,217.03191 405.85375,214.99737 C 394.82454,212.43099 388.90595,207.95147 377.51184,193.54663 C 371.9899,186.56562 365.34573,179.38815 362.747,177.5967 C 347.73201,167.24605 310.96233,161.83465 241.81716,159.79946 C 221.4672,159.2005 201.48724,158.37451 197.41724,157.96394 C 190.11144,157.22694 189.95345,157.13774 185.00406,150.95569 C 179.43939,144.00511 179.43821,144.49941 185.04965,131.81384 C 188.13616,124.83627 191.83669,123.90963 216.20183,124.01309 C 235.08212,124.09328 254.82521,125.74452 290.88158,130.25906 C 314.45718,133.2109 320.10903,134.32054 332.19807,138.37073 C 346.05958,143.01477 354.37423,147.1961 362.79902,153.75957 C 387.75673,173.2033 394.97863,177.18937 413.95008,181.9921 C 434.08885,187.09034 445.88896,189.07746 460.97061,189.9103 C 476.76434,190.78245 482.38288,191.72012 513.90897,198.74507 C 534.4312,203.31802 542.79993,204.6431 555.99871,205.40938 C 570.75797,206.26628 573.11768,206.69717 578.66453,209.5483 C 582.94355,211.74776 585.49828,213.97335 586.93544,216.75371 C 589.48646,221.6889 591.27797,237.69617 591.30449,255.79147 C 591.32119,267.18983 590.88492,270.5609 588.45708,277.79332 C 582.40721,295.81555 577.64408,301.80328 564.53316,307.86809 C 545.57358,316.63834 508.99566,327.1363 465.60922,336.25953 C 434.11975,342.88108 427.93227,344.55705 419.41684,348.77146 C 403.87666,356.46249 350.06011,384.57863 342.7308,388.83561 C 319.24151,402.47858 303.90329,414.65742 291.64042,429.40234 C 287.12029,434.83736 274.61677,447.99339 263.8548,458.63799 C 238.31993,483.89438 229.30403,497.75031 217.92622,529.22248 C 211.41612,547.23008 207.09524,554.31989 199.23229,559.89598 C 185.06157,569.94529 175.56836,573.00375 165.18203,570.86608 z M 297.60168,224.54884 C 275.18745,221.97943 261.05752,215.59759 258.40856,206.84711 C 257.40196,203.52193 263.20498,196.96143 270.35987,193.33578 C 287.08499,184.86052 320.05743,181.81957 339.23521,186.98361 C 345.05863,188.5517 353.9838,194.22372 355.71352,197.45574 C 358.62446,202.89488 354.34745,215.67958 348.28885,219.64934 C 345.47752,221.49139 317.96462,225.89753 310.69396,225.67009 C 308.18935,225.59174 302.29782,225.08718 297.60168,224.54884 z M 15.763823,121.68587 C 15.328476,119.36529 15.227221,113.90361 15.538806,109.54881 C 16.57214,95.106596 26.631864,78.998602 46.73625,59.594323 C 58.671016,48.075157 71.1162,38.275322 82.179134,31.685169 C 88.671267,27.817826 89.177814,27.702222 94.452217,28.884241 C 103.83588,30.987163 115.35098,37.84598 124.0233,46.497856 C 136.73983,59.184409 140.36937,70.322721 134.18274,77.675108 C 132.58986,79.568139 130.31362,81.425797 129.12442,81.803231 C 126.07302,82.771707 119.44938,79.091477 109.93144,71.139235 C 105.4316,67.379621 100.72552,63.978439 99.473492,63.58106 C 92.567315,61.389127 78.996104,72.057369 62.107126,92.954532 C 43.865306,115.52561 34.279318,123.09164 21.317228,125.14922 L 16.555359,125.90511 L 15.763823,121.68587 z "
     id="path2223" />
</svg>
