<?xml version="1.0" encoding="UTF-8" standalone="no"?>
<!DOCTYPE svg PUBLIC "-//W3C//DTD SVG 1.1//EN" "http://www.w3.org/Graphics/SVG/1.1/DTD/svg11.dtd">
<!-- Created with Vectornator (http://vectornator.io/) -->
<svg height="100%" stroke-miterlimit="10" style="fill-rule:nonzero;clip-rule:evenodd;stroke-linecap:round;stroke-linejoin:round;" version="1.1" viewBox="0 0 591.305 643.637" width="100%" xml:space="preserve" xmlns="http://www.w3.org/2000/svg" xmlns:vectornator="http://vectornator.io" xmlns:xlink="http://www.w3.org/1999/xlink">
<defs/>
<g id="Untitled" vectornator:layerName="Untitled">
<path d="M452.432 640.811C441.02 637.674 427.065 632.27 418.179 627.546C413.535 625.077 410 621.863 405.086 615.642C395.957 604.084 387.202 589.316 384.376 580.707C380.972 570.337 379.193 552.234 379.886 535.011C380.822 511.732 383.893 503.147 398.117 484.05C409.463 468.817 417.858 459.554 430.601 448.209C440.198 439.664 443.687 437.437 459.775 429.583C480.441 419.494 490.054 415.966 499.109 415.147C504.909 414.622 505.605 414.827 508.544 417.931C510.289 419.775 512.003 423.039 512.351 425.187C513.36 431.405 510.506 433.822 498.54 436.881C479.016 441.873 460.221 453.314 447.703 467.826C438.669 478.3 432.721 487.596 423.836 505.125C417.306 518.009 416.549 517.618 433.87 510.307C450.945 503.099 455.412 502.221 478.053 501.628L498.552 501.092L511.069 507.496C517.953 511.019 526.011 515.682 528.975 517.859C535.611 522.733 543.353 532.439 548.675 542.556C552.394 549.624 552.744 551.163 553.339 563.049C553.692 570.116 553.459 579.943 552.82 584.885C551.801 592.771 551.009 594.821 546.344 601.647C531.572 623.267 511.05 639.248 494.016 642.397C482.376 644.549 463.399 643.825 452.432 640.811ZM485.742 616.385C498.144 613.213 502.648 610.556 507.447 603.58C514.093 593.921 515.21 582.912 511.466 563.945C509.942 556.227 507.684 551.691 500.809 542.546C494.773 534.516 488.693 529.892 480.218 526.886C474.687 524.925 473.871 524.919 462.572 526.757C442.272 530.06 427.398 539.534 423.834 551.429C421.977 557.629 423.857 573.478 428.041 586.887C430.684 595.358 431.715 597.072 437.52 602.653C444.749 609.602 453.551 614.398 463.499 616.808C472.536 618.997 475.768 618.936 485.742 616.385ZM165.182 570.866C159.826 569.764 155.225 566.469 153.162 562.258C150.966 557.774 153.145 545.4 157.74 536.258C166.458 518.916 185.109 488.34 197.794 470.592C216.73 444.1 240.342 418.139 256.812 405.704C277.204 390.307 342.532 351.389 379.218 332.783C419.163 312.524 435.057 307.002 477.478 298.642C490.314 296.112 503.24 293.256 506.202 292.295C509.165 291.333 516.476 287.279 522.45 283.285C528.424 279.291 536.376 274.39 540.12 272.394C543.865 270.398 548.977 266.543 551.481 263.827C555.654 259.299 556.032 258.363 556.032 252.548C556.032 242.01 551.866 239.674 528.709 237.228C522.134 236.534 512.144 235.198 506.509 234.26C491.968 231.838 414.597 217.032 405.854 214.997C394.825 212.431 388.906 207.951 377.512 193.547C371.99 186.566 365.346 179.388 362.747 177.597C347.732 167.246 310.962 161.835 241.817 159.799C221.467 159.201 201.487 158.375 197.417 157.964C190.111 157.227 189.953 157.138 185.004 150.956C179.439 144.005 179.438 144.499 185.05 131.814C188.136 124.836 191.837 123.91 216.202 124.013C235.082 124.093 254.825 125.745 290.882 130.259C314.457 133.211 320.109 134.321 332.198 138.371C346.06 143.015 354.374 147.196 362.799 153.76C387.757 173.203 394.979 177.189 413.95 181.992C434.089 187.09 445.889 189.077 460.971 189.91C476.764 190.782 482.383 191.72 513.909 198.745C534.431 203.318 542.8 204.643 555.999 205.409C570.758 206.266 573.118 206.697 578.665 209.548C582.944 211.748 585.498 213.973 586.935 216.754C589.486 221.689 591.278 237.696 591.304 255.791C591.321 267.19 590.885 270.561 588.457 277.793C582.407 295.816 577.644 301.803 564.533 307.868C545.574 316.638 508.996 327.136 465.609 336.26C434.12 342.881 427.932 344.557 419.417 348.771C403.877 356.462 350.06 384.579 342.731 388.836C319.242 402.479 303.903 414.657 291.64 429.402C287.12 434.837 274.617 447.993 263.855 458.638C238.32 483.894 229.304 497.75 217.926 529.222C211.416 547.23 207.095 554.32 199.232 559.896C185.062 569.945 175.568 573.004 165.182 570.866ZM297.602 224.549C275.187 221.979 261.058 215.598 258.409 206.847C257.402 203.522 263.205 196.961 270.36 193.336C287.085 184.861 320.057 181.82 339.235 186.984C345.059 188.552 353.984 194.224 355.714 197.456C358.624 202.895 354.347 215.68 348.289 219.649C345.478 221.491 317.965 225.898 310.694 225.67C308.189 225.592 302.298 225.087 297.602 224.549ZM15.7638 121.686C15.3285 119.365 15.2272 113.904 15.5388 109.549C16.5721 95.1066 26.6319 78.9986 46.7362 59.5943C58.671 48.0752 71.1162 38.2753 82.1791 31.6852C88.6713 27.8178 89.1778 27.7022 94.4522 28.8842C103.836 30.9872 115.351 37.846 124.023 46.4979C136.74 59.1844 140.369 70.3227 134.183 77.6751C132.59 79.5681 130.314 81.4258 129.124 81.8032C126.073 82.7717 119.449 79.0915 109.931 71.1392C105.432 67.3796 100.726 63.9784 99.4735 63.5811C92.5673 61.3891 78.9961 72.0574 62.1071 92.9545C43.8653 115.526 34.2793 123.092 21.3172 125.149L16.5554 125.905L15.7638 121.686Z" fill="#003d79" fill-rule="nonzero" opacity="1" stroke="none" vectornator:layerName="path"/>
</g>
</svg>
